<?xml version="1.0"?>
<svg xmlns="http://www.w3.org/2000/svg" viewBox="0 0 64 64" width="42" height="42" fill="#adb5bd"><g id="Outlines"><g><path d="M59,22H57V19a3,3,0,0,0-3-3H52V6a1,1,0,0,0-1-1H43a1,1,0,0,0,0,2h7v9H46a1,1,0,0,0,0,2h8a1,1,0,0,1,1,1v3H16V19a1,1,0,0,1,1-1h8a1,1,0,0,0,0-2H20V7h7a1,1,0,0,0,0-2H19a1,1,0,0,0-1,1V16H17a3,3,0,0,0-3,3v3H11a1,1,0,0,0-1,1v7a4,4,0,0,0,3,3.858V35H9a3,3,0,0,0-3,3v1H5a1,1,0,0,0-1,1V51a1,1,0,0,0,1,1H6v1a3,3,0,0,0,3,3h4v5a1,1,0,0,0,1,1H56a1,1,0,0,0,1-1V37a1,1,0,0,0-2,0V60H32V43a1,1,0,0,0-1-1H19a1,1,0,0,0-1,1V57a1,1,0,0,0,2,0V44H30V60H15V33.858a3.976,3.976,0,0,0,2-1.24A3.975,3.975,0,0,0,20,34a1,1,0,0,0,0-2,2,2,0,0,1-2-2V24h4v6a3.983,3.983,0,0,0,7,2.618,3.947,3.947,0,0,0,6,0,3.947,3.947,0,0,0,6,0,3.947,3.947,0,0,0,6,0,3.947,3.947,0,0,0,6,0A3.983,3.983,0,0,0,60,30V23A1,1,0,0,0,59,22ZM6,50V48.28l2,.5V50Zm2-3.28-2-.5V44.28l2,.5ZM8,41v1.72l-2-.5V41ZM9,54a1,1,0,0,1-1-1V52H9a1,1,0,0,0,1-1V40a1,1,0,0,0-1-1H8V38a1,1,0,0,1,1-1h4V54Zm5-22a2,2,0,0,1-2-2V24h4v6A2,2,0,0,1,14,32Zm12,0a2,2,0,0,1-2-2V24h4v6A2,2,0,0,1,26,32Zm6,0a2,2,0,0,1-2-2V24h4v6A2,2,0,0,1,32,32Zm6,0a2,2,0,0,1-2-2V24h4v6A2,2,0,0,1,38,32Zm6,0a2,2,0,0,1-2-2V24h4v6A2,2,0,0,1,44,32Zm6,0a2,2,0,0,1-2-2V24h4v6A2,2,0,0,1,50,32Zm8-2a2,2,0,0,1-4,0V24h4Z"/><path d="M29.5,17.6a3,3,0,0,0,4.1-1.1l.007-.016.007-.01L35,13.9l1.387,2.576.007.01.007.016h0c.027.046.067.079.1.124a.936.936,0,0,0,.062.079A3.027,3.027,0,1,0,36.786,13l-.65-1.207,4.477-8.315a1,1,0,1,0-1.761-.948L35,9.68,31.148,2.526a1,1,0,1,0-1.761.948l4.477,8.315L33.214,13A2.993,2.993,0,1,0,29.5,17.6Zm9-3.464a1,1,0,1,1,1,1.731,1,1,0,0,1-1.365-.364l0,0A1,1,0,0,1,38.5,14.134Zm-8.367.366a1,1,0,0,1,.608-.467A1.055,1.055,0,0,1,31,14a1,1,0,0,1,.865,1.5v0a1,1,0,0,1-1.732-1Z"/><path d="M47,12a1,1,0,0,0,0-2H43a1,1,0,0,0,0,2Z"/><path d="M27,10H23a1,1,0,0,0,0,2h4a1,1,0,0,0,0-2Z"/><path d="M52,42H35a1,1,0,0,0-1,1V55a1,1,0,0,0,1,1H52a1,1,0,0,0,1-1V43A1,1,0,0,0,52,42Zm-1,5.758L47.242,44H51ZM36,54V44h2.758l7.621,7.621a1,1,0,0,0,1.414-1.414L41.586,44h2.828L51,50.586V54Z"/><circle cx="27" cy="51" r="1"/><path d="M21,38a1,1,0,0,0,0,2h8a1,1,0,0,0,0-2Z"/></g></g></svg>
