<svg id="_x33_0" enable-background="new 0 0 64 64" height="36" viewBox="0 0 64 64" width="36" fill="#6c757d" xmlns="http://www.w3.org/2000/svg"><g><path d="m54 42h2v2h-2z"/><path d="m63 13c0-4.411-3.589-8-8-8-.491 0-.973.042-1.438.127-1.64-2.564-4.471-4.127-7.562-4.127-3.132 0-5.972 1.586-7.612 4.196-.447-.13-.91-.196-1.388-.196-1.602 0-3.053.75-3.986 1.995-3.019-1.298-6.299-1.995-9.644-1.995h-1.476c-1.976 0-3.966.165-5.914.49-6.041 1.007-11.282 4.878-14.02 10.354-.628 1.255-.96 2.66-.96 4.066 0 3.507 2 6.551 4.916 8.066l-.662 7.937c-.15 1.798-.758 3.54-1.758 5.041-.324.486-.496 1.053-.496 1.638 0 1.273.812 2.4 2.02 2.802l1.144.382 1.02 4.078c.611 2.444 2.138 4.505 4.3 5.802 1.465.879 3.144 1.344 4.853 1.344 2.528 0 5.038-.368 7.459-1.095l.113-.034c-.155 1.472-.579 3.831-1.741 5.574l-1.036 1.555h23.736l-1.036-1.555c-3.423-5.135-3.789-10.334-3.827-11.291.873-2.459 2.511-3.549 4.574-4.922 1.748-1.163 3.664-2.444 5.421-4.733v3.685c-1.161.414-2 1.514-2 2.816 0 .68.236 1.301.619 1.805-.977.729-1.619 1.884-1.619 3.195 0 2.206 1.794 4 4 4s4-1.794 4-4c0-1.311-.642-2.466-1.619-3.195.383-.504.619-1.125.619-1.805 0-1.302-.839-2.402-2-2.816v-17.184c.732 0 1.409-.212 2-.556v13.556h2v-11.09c2.833-.478 5-2.942 5-5.91 0-1.309-.428-2.567-1.2-3.599 2-1.496 3.2-3.85 3.2-6.401zm-39.63-6c6.082 0 11.929 2.5 16.14 6.868-.118.38-.206.756-.282 1.132h-6.191c-6.263 0-12.155-2.83-16.071-7.633 1.63-.239 3.284-.367 4.929-.367zm29.384 12.076c-.245-.047-.496-.076-.754-.076-.49 0-.954.101-1.388.263.231-.621.388-1.368.388-2.263 0-3.375-3.158-6.573-3.293-6.707l-.707-.707-.707.707c-.135.134-3.293 3.332-3.293 6.707 0 1.822.642 3.041 1.258 3.794-.164.37-.258.776-.258 1.206 0 .753.288 1.433.748 1.961-.058.104-.115.213-.17.328-2.445-1.545-3.578-4.725-3.578-7.289 0-1.526.466-3.138 1.384-4.79.905-1.627 2.196-3.091 3.838-4.352l.778-.597.778.598c1.642 1.261 2.933 2.725 3.838 4.351.918 1.652 1.384 3.264 1.384 4.79 0 .722-.087 1.415-.246 2.076zm-12.825 10.924h-4.929v-3.697c0-1.447.425-2.848 1.228-4.052.756-1.134 1.836-2.018 3.095-2.583.151.64.359 1.279.62 1.902-.821.409-1.533 1.014-2.051 1.791-.584.873-.892 1.891-.892 2.942v1.697h2.929c1.537 0 2.983-.58 4.101-1.629-.018.202-.03.41-.03.629 0 .578.098 1.15.252 1.703-1.288.834-2.761 1.297-4.323 1.297zm-6.891-13h5.962c0 .201.008.406.019.613-.891.338-1.713.811-2.452 1.387h-3.529c-8.144 0-15.64-3.918-20.293-10.53.659-.265 1.337-.489 2.03-.671 4.274 5.77 11.043 9.201 18.263 9.201zm7.832 6.334c.429.658.936 1.265 1.52 1.797-.702.553-1.554.869-2.461.869h-.915c.05-.546.234-1.07.541-1.529.331-.497.787-.883 1.315-1.137zm4.13-6.334c0-1.699 1.197-3.48 2-4.482.803 1.002 2 2.783 2 4.482 0 1.094-.318 1.84-.66 2.33-.405-.204-.856-.33-1.34-.33s-.935.126-1.34.331c-.342-.492-.66-1.237-.66-2.331zm1 5c0-.551.448-1 1-1s1 .449 1 1-.448 1-1 1-1-.449-1-1zm-4.788 39h-16.537c.958-2.182 1.223-4.563 1.296-5.747l4.316-1.295-.574-1.916-6.491 1.947c-2.236.671-4.552 1.011-6.885 1.011-1.347 0-2.67-.366-3.826-1.06-1.195-.717-2.136-1.735-2.762-2.94h2.424c2.061 0 4.078-.836 5.535-2.293l-1.414-1.414c-1.086 1.085-2.588 1.707-4.122 1.707h-3.142l-1.193-4.775-2.186-.729c-.389-.129-.651-.493-.651-.904 0-.188.056-.372.16-.529 1.188-1.78 1.909-3.85 2.086-5.983l.614-7.367c.715.18 1.459.287 2.23.287h.655c.889 0 1.782-.074 2.656-.22 1.376-.229 2.574-.878 3.519-1.78h2.97c3.147 0 5.925 2.121 6.753 5.158l1.846 6.768 3.184-3.184c.477-.478 1.114-.742 1.792-.742 1.397 0 2.535 1.138 2.535 2.535 0 1.737-.6 3.382-1.698 4.701-.41-.143-.844-.236-1.302-.236-2.206 0-4 1.794-4 4s1.794 4 4 4c.967 0 1.844-.359 2.536-.932.865.713 1.698 1.25 2.493 1.608.108 1.6.632 5.81 3.183 10.324zm-6.212-15c0 1.103-.897 2-2 2s-2-.897-2-2 .897-2 2-2 2 .897 2 2zm8.471-2.433c-1.982 1.318-3.862 2.579-5.012 5.097-.546-.294-1.132-.705-1.74-1.214.175-.45.281-.937.281-1.45 0-1.021-.396-1.944-1.028-2.652 1.311-1.649 2.028-3.675 2.028-5.813 0-2.501-2.034-4.535-4.535-4.535-1.212 0-2.351.472-3.207 1.328l-.746.746-.939-3.442c-1.066-3.905-4.636-6.632-8.683-6.632h-1.538c.403-.865.648-1.816.648-2.828 0-2.488-1.683-4.622-4.002-5.074-1.497-.293-3.018.088-4.175 1.042-1.159.953-1.823 2.36-1.823 3.86h2c0-.899.398-1.744 1.095-2.317.704-.581 1.599-.801 2.521-.623 1.359.266 2.384 1.604 2.384 3.112 0 2.307-1.651 4.256-3.927 4.636-.766.127-1.55.192-2.328.192h-.655c-3.909 0-7.09-3.181-7.09-7.09 0-1.096.259-2.192.749-3.17 1.587-3.174 4.115-5.74 7.165-7.405 5.012 7.316 13.208 11.665 22.124 11.665h1.629c-.033.048-.071.092-.104.141-1.022 1.533-1.563 3.318-1.563 5.162v5.697h6.929c.429 0 .852-.035 1.271-.087.135.284.28.568.436.85 1.039 1.867 2.509 3.538 4.367 4.965l1.997 1.533.925-.71c-1.691 2.488-3.596 3.78-5.454 5.016zm7.529 10.433c-1.103 0-2-.897-2-2s.897-2 2-2 2 .897 2 2-.897 2-2 2zm-1-7c0-.552.448-1 1-1s1 .448 1 1-.448 1-1 1-1-.448-1-1zm0-11.906c-.386.363-.79.716-1.222 1.047l-.778.598-.778-.598c-1.642-1.26-2.933-2.724-3.838-4.351-.063-.114-.106-.228-.165-.342.627-.218 1.229-.505 1.805-.848.935 1.756 2.186 3.023 2.27 3.107l.706.707.707-.707c.056-.056.636-.646 1.293-1.554zm0-8.094c0 1.699-1.197 3.48-2 4.482-.803-1.002-2-2.783-2-4.482 0-.916.227-1.576.492-2.051.166.028.334.051.508.051.495 0 .956-.132 1.368-.346.345.754.919 1.374 1.632 1.789zm2-2c-1.103 0-2-.897-2-2s.897-2 2-2 2 .897 2 2-.897 2-2 2zm5.785-6.685-1.304.684 1.117.959c.891.766 1.402 1.875 1.402 3.042 0 1.858-1.279 3.411-3 3.858v-3.858c0-1.215-.556-2.292-1.414-3.026.271-.942.414-1.938.414-2.974 0-1.87-.551-3.809-1.636-5.763-1.039-1.867-2.509-3.537-4.367-4.965l-1.997-1.533-1.997 1.533c-1.858 1.428-3.328 3.098-4.367 4.965-.115.207-.2.413-.303.62-1.637-1.579-3.48-2.908-5.463-3.966.553-.561 1.308-.891 2.13-.891.483 0 .942.113 1.363.334l.907.479.455-.918c1.193-2.403 3.596-3.895 6.275-3.895 2.608 0 4.979 1.431 6.185 3.734l.381.728.788-.233c.514-.152 1.068-.229 1.646-.229 3.309 0 6 2.691 6 6 0 2.238-1.231 4.274-3.215 5.315z"/><path d="m10.707 34.293-1.414 1.414c1.457 1.457 3.475 2.293 5.535 2.293h3.172v-2h-3.172c-1.534 0-3.036-.622-4.121-1.707z"/></g></svg>