<?xml version="1.0"?>
<svg xmlns="http://www.w3.org/2000/svg" viewBox="0 0 512 512" width="36" height="36" fill="#6c757d"><g id="Beauty_Curl_Hair" data-name="Beauty Curl Hair"><g id="Outline"><path d="M154.343,349.657a8,8,0,0,0,11.314,0l14.759-14.76A62.355,62.355,0,0,0,192,336c18.772,0,28.6-9.285,29.657-10.343l-11.314-11.314.092-.09c-.251.235-6.286,5.747-18.435,5.747-20.21,0-34.229-13.544-34.343-13.657a8,8,0,0,0-11.314,0l-16,16a8,8,0,0,0,11.314,11.314l10.888-10.888a73.6,73.6,0,0,0,10.884,6.489l-9.086,9.085A8,8,0,0,0,154.343,349.657Z"/><path d="M256,404.346A17.155,17.155,0,0,0,245.091,400c-9.683,0-26.954,12.329-33.931,17.63A8,8,0,0,0,208,424c0,15.465,13.031,40,48,40s48-24.535,48-40a8,8,0,0,0-3.16-6.37c-6.977-5.3-24.248-17.63-33.931-17.63A17.155,17.155,0,0,0,256,404.346Zm31.433,23.282C285.812,434.337,279.605,448,256,448s-29.812-13.663-31.433-20.372c8.509-6.07,17.321-11.132,20.312-11.6.958.456,2.6,2.127,4.876,4.974a8,8,0,0,0,12.49,0c2.265-2.83,3.9-4.5,4.858-4.965C270.229,416.569,278.985,421.6,287.433,427.628Z"/><path d="M139.578,279.155A68.143,68.143,0,0,1,169.425,272c12.21,1.493,33.7,6.438,40.918,13.656a8,8,0,1,0,11.314-11.314c-13.574-13.573-47.063-17.846-50.837-18.289a8.047,8.047,0,0,0-.931-.054,84.206,84.206,0,0,0-37.467,8.845,8,8,0,0,0,7.156,14.31Z"/><path d="M370.343,333.657a8,8,0,0,0,11.314-11.314l-16-16a8.032,8.032,0,0,0-11.289-.024C354.229,306.456,340.21,320,320,320c-12.149,0-18.184-5.512-18.435-5.747l.092.09-11.314,11.314C291.4,326.715,301.228,336,320,336a62.355,62.355,0,0,0,11.584-1.1l14.759,14.76a8,8,0,0,0,11.314-11.314l-9.086-9.085a73.6,73.6,0,0,0,10.884-6.489Z"/><path d="M379.578,264.845A84.206,84.206,0,0,0,342.111,256a8.047,8.047,0,0,0-.931.054c-3.774.443-37.263,4.716-50.837,18.289a8,8,0,0,0,11.314,11.314c7.194-7.194,28.7-12.151,40.921-13.656a68.141,68.141,0,0,1,29.844,7.154,8,8,0,1,0,7.156-14.31Z"/><path d="M32,280a24,24,0,1,0,24-24A24.027,24.027,0,0,0,32,280Zm32,0a8,8,0,1,1-8-8A8.009,8.009,0,0,1,64,280Z"/><path d="M56,352a24,24,0,1,0,24,24A24.027,24.027,0,0,0,56,352Zm0,32a8,8,0,1,1,8-8A8.009,8.009,0,0,1,56,384Z"/><path d="M456,304a24,24,0,1,0-24-24A24.027,24.027,0,0,0,456,304Zm0-32a8,8,0,1,1-8,8A8.009,8.009,0,0,1,456,272Z"/><path d="M484.81,328A55.981,55.981,0,0,0,464,224.581V201.136l21.42-21.415a24,24,0,0,0,0-33.943l-11.315-11.315a8.023,8.023,0,0,0-1.976-1.446,31.771,31.771,0,0,0-9.337-21.184L440.167,89.206a31.771,31.771,0,0,0-21.184-9.337,8.023,8.023,0,0,0-1.446-1.976L406.222,66.578a24,24,0,0,0-33.943,0l-1.574,1.574A199.524,199.524,0,0,0,336,48.664V32A24.028,24.028,0,0,0,312,8H296a7.975,7.975,0,0,0-2.968.575A23.973,23.973,0,0,0,274.647,0H237.353a23.973,23.973,0,0,0-18.385,8.575A7.975,7.975,0,0,0,216,8H200a24.028,24.028,0,0,0-24,24V48.664a199.135,199.135,0,0,0-34.7,19.494l-1.578-1.578a23.841,23.841,0,0,0-16.971-7.031h0a23.843,23.843,0,0,0-16.971,7.029L94.463,77.893a8.023,8.023,0,0,0-1.446,1.976,31.771,31.771,0,0,0-21.184,9.337L49.206,111.833a31.771,31.771,0,0,0-9.337,21.184,8.023,8.023,0,0,0-1.976,1.446L26.578,145.778a24,24,0,0,0,0,33.943L48,201.137v23.444A55.981,55.981,0,0,0,27.19,328a56,56,0,1,0,57.62,0A55.981,55.981,0,0,0,64,224.581V209.26c.726.066,1.453.1,2.181.1a23.93,23.93,0,0,0,16.967-7.013l5.662-5.66a8,8,0,0,0,11.308-11.318l-39.6-39.6a16,16,0,0,1,0-22.628L83.147,100.52a16,16,0,0,1,22.628,0l39.6,39.6a8,8,0,0,0,11.318-11.308l5.66-5.662a24.03,24.03,0,0,0,0-33.936l-9.538-9.539a183.148,183.148,0,0,1,23.295-13.466A24.03,24.03,0,0,0,200,88h1.323l-1.194,6.569a8,8,0,0,0,15.742,2.862l13.611-74.862A8,8,0,0,1,237.353,16H256V56a8,8,0,0,0,16,0V16h2.647a8,8,0,0,1,7.871,6.569l13.611,74.862a8,8,0,1,0,15.742-2.862L310.677,88H312a24.03,24.03,0,0,0,23.894-21.794,183.516,183.516,0,0,1,23.3,13.464l-9.539,9.54a24.028,24.028,0,0,0,0,33.939l5.656,5.657a8,8,0,0,0,11.315,11.312l5.573-5.573c.028-.027.059-.05.087-.078s.051-.059.078-.088l33.86-33.859a16,16,0,0,1,22.628,0l9.657,9.657-20.167,20.166a8,8,0,0,0,11.314,11.314l20.166-20.167,1.657,1.657a16,16,0,0,1,0,22.628l-39.6,39.6a8,8,0,0,0,11.312,11.315l5.657,5.656a23.917,23.917,0,0,0,16.97,7.018c.727,0,1.454-.038,2.179-.1v15.322A55.981,55.981,0,0,0,427.19,328a56,56,0,1,0,57.62,0ZM96,376a40,40,0,1,1-40-40A40.045,40.045,0,0,1,96,376Zm0-96a40,40,0,1,1-40-40A40.045,40.045,0,0,1,96,280ZM77.5,185.378l-5.659,5.656a8.01,8.01,0,0,1-11.312,0L37.893,168.406a8,8,0,0,1,0-11.314l6.37-6.371a32.18,32.18,0,0,0,4.944,6.367Zm73.538-73.541-5.656,5.659-28.29-28.29a32.18,32.18,0,0,0-6.367-4.944l6.371-6.37a7.948,7.948,0,0,1,5.657-2.343h0a7.944,7.944,0,0,1,5.657,2.344l6.278,6.279c.032.033.065.065.1.1l16.252,16.256A8.009,8.009,0,0,1,151.034,111.837ZM204.232,72H200a8.009,8.009,0,0,1-8-8V32a8.009,8.009,0,0,1,8-8h12.96ZM320,54.05V64a8.009,8.009,0,0,1-8,8h-4.232L299.04,24H312a8.009,8.009,0,0,1,8,8Zm74.912,35.156-28.286,28.286-5.657-5.656a8.012,8.012,0,0,1,0-11.314l22.626-22.629a8,8,0,0,1,11.314,0l6.371,6.37A32.18,32.18,0,0,0,394.912,89.206Zm45.253,101.825-5.657-5.657,28.286-28.286a32.18,32.18,0,0,0,4.944-6.367l6.37,6.371a8,8,0,0,1,0,11.314l-22.629,22.625A8.009,8.009,0,0,1,440.165,191.031ZM416,280a40,40,0,1,1,40,40A40.045,40.045,0,0,1,416,280Zm40,136a40,40,0,1,1,40-40A40.045,40.045,0,0,1,456,416Z"/><path d="M456,352a24,24,0,1,0,24,24A24.027,24.027,0,0,0,456,352Zm0,32a8,8,0,1,1,8-8A8.009,8.009,0,0,1,456,384Z"/><path d="M339.97,165.28a8.016,8.016,0,1,0-3.65-4.92A8.009,8.009,0,0,0,339.97,165.28Z"/><path d="M263.78,129.3a430.575,430.575,0,0,1,48.63,20.91,7.859,7.859,0,0,0,3.58.85,8,8,0,0,0,3.58-15.16,448.343,448.343,0,0,0-50.61-21.74,7.917,7.917,0,0,0-2.59-.44,8,8,0,0,0-2.59,15.58Z"/><path d="M163.173,169.307a7.963,7.963,0,0,0,4.2-1.2c9.439-5.839,19.659-11.548,30.376-16.971a8,8,0,0,0-7.223-14.277c-11.123,5.628-21.744,11.563-31.57,17.641a8,8,0,0,0,4.216,14.8Z"/><path d="M393.938,413.649a8,8,0,0,0-11.139,1.983c-14.694,21.058-38.214,42.342-69.909,63.263a103.062,103.062,0,0,1-113.783,0c-31.692-20.919-55.212-42.2-69.906-63.261a8,8,0,1,0-13.121,9.156c15.857,22.724,40.825,45.42,74.211,67.457a119.039,119.039,0,0,0,131.416,0c33.388-22.039,58.356-44.735,74.213-67.459A8,8,0,0,0,393.938,413.649Z"/><path d="M117.638,244.386a8,8,0,0,0,11.2-1.614c22.588-30.191,62.81-53.425,92.574-67.6a8,8,0,1,0-6.879-14.445c-31.391,14.948-73.962,39.654-98.507,72.46A8,8,0,0,0,117.638,244.386Z"/><path d="M128,168.32a8,8,0,0,0,5.541-13.771l-12-11.52a8,8,0,0,0-11.08,11.542l12,11.52A7.972,7.972,0,0,0,128,168.32Z"/><circle cx="96" cy="128" r="8"/><circle cx="400" cy="160" r="8"/><path d="M248,96V80a8,8,0,0,0-16,0V96a8,8,0,0,0,16,0Z"/><path d="M258.53,144.411c-20.113-6.7-27.052-19.383-27.4-20.049a8,8,0,0,0-14.28,7.216c.387.774,9.79,19.067,36.563,27.99.908.311,91.211,31.677,129.756,83.2a8,8,0,0,0,12.812-9.584C354.5,177.749,262.488,145.766,258.53,144.411Z"/></g></g></svg>
