<?xml version="1.0" encoding="iso-8859-1"?>
<!-- Generator: Adobe Illustrator 19.0.0, SVG Export Plug-In . SVG Version: 6.00 Build 0)  -->
<svg version="1.1" id="Layer_1" height="36" width="36" fill="#6c757d" xmlns="http://www.w3.org/2000/svg" xmlns:xlink="http://www.w3.org/1999/xlink" x="0px" y="0px"
	 viewBox="0 0 512.004 512.004" style="enable-background:new 0 0 512.004 512.004;" xml:space="preserve">
<g>
	<g>
		<path d="M506.946,142.912l-4.781-11.328l-10.547,6.328c-11.188,6.727-30.406,8.617-50.734,10.617
			c-23.328,2.305-47.453,4.68-66.984,14.609c-3.641,1.852-7,3.922-10.094,6.211c-13.625-14.531-32.984-23.609-54.469-23.609
			c-20.891,0-39.781,8.594-53.344,22.422c-13.547-13.828-32.438-22.422-53.328-22.422c-21.484,0-40.859,9.078-54.469,23.609
			c-3.094-2.289-6.453-4.359-10.094-6.211c-19.547-9.93-43.656-12.305-66.984-14.609c-20.328-2-39.547-3.891-50.734-10.617
			l-10.547-6.328l-4.781,11.328c-0.531,1.258-12.781,31.055,2.891,56.703c3.5,5.719,8.031,10.695,13.578,14.93
			c-1.922,8.023-4,24.617,5.828,40.18c6.953,11,18.25,19.117,33.75,24.289c-0.156,7.266,1.594,16.438,7.781,25.047
			c12.562,17.5,37.844,26.281,75.406,26.281c12.688,0,26.781-1,42.266-3c33.703,32.234,69.438,53.078,69.438,53.078
			s35.734-20.844,69.438-53.078c15.484,2,29.594,3,42.281,3c37.562,0,62.844-8.781,75.391-26.281
			c6.188-8.609,7.953-17.781,7.781-25.047c15.5-5.172,26.797-13.289,33.75-24.289c9.844-15.562,7.75-32.156,5.828-40.18
			c5.562-4.234,10.094-9.211,13.594-14.93C519.728,173.967,507.478,144.17,506.946,142.912z M87.228,292.936
			c-2.594-3.109-3.844-6.266-4.422-8.984c3.453,0.484,7.031,0.875,10.75,1.172c2.859,0.219,7.859,0.375,11.516,0.484l1.25,0.047
			v-0.016c2.844,0.078,5.703-0.953,7.875-3.109c4.172-4.156,4.172-10.922,0-15.086c-2-2-4.594-3.023-7.203-3.109v-0.008
			l-1.266-0.039c-3.047-0.094-8.156-0.25-10.516-0.438c-25.219-1.969-42.422-9.008-49.703-20.352
			c-4.062-6.312-4.562-13.25-4.141-18.406c9.922,3.578,21.547,5.875,34.844,6.875c1.219,0.086,3.172,0.156,5.812,0.242
			c1.125,0.031,2.156,0.062,2.797,0.094v-0.008c2.906,0.133,5.828-0.898,8.047-3.102c4.156-4.164,4.156-10.922,0-15.086
			c-1.953-1.961-4.484-2.984-7.047-3.102v-0.016c-0.719-0.031-1.875-0.07-3.125-0.109c-1.703-0.055-4.031-0.125-4.891-0.188
			c-26.406-1.977-43.75-9.406-51.578-22.086c-5.484-8.875-5.438-19.18-4.266-26.727c13.578,4.586,29.969,6.195,47.062,7.883
			c21.359,2.102,43.453,4.281,59.406,12.398c2.766,1.398,5.266,2.961,7.531,4.664c-5.094,10.094-7.969,21.508-7.969,33.586
			c0,31.742,17.703,62.008,39.953,87.492C113.196,312.717,93.946,300.967,87.228,292.936z M306.134,316.186
			c-19.125,17.625-38.531,31.344-50.141,39c-11.609-7.656-31-21.375-50.125-39c-25.797-23.75-56.547-59.633-56.547-95.773
			c0-29.406,23.938-53.336,53.344-53.336c14.438,0,27.969,5.688,38.094,16.016l15.234,15.555l15.25-15.555
			c10.109-10.328,23.641-16.016,38.094-16.016c29.406,0,53.328,23.93,53.328,53.336
			C362.665,256.553,331.931,292.436,306.134,316.186z M485.853,188.49c-7.797,12.75-25.172,20.219-51.656,22.203
			c-0.859,0.062-3.172,0.133-4.875,0.188c-1.266,0.039-2.422,0.078-3.141,0.109v0.016c-2.562,0.117-5.094,1.141-7.047,3.102
			c-4.172,4.164-4.172,10.922,0,15.086c2.203,2.211,5.141,3.234,8.047,3.102v0.008c0.641-0.031,1.688-0.062,2.828-0.094
			c2.625-0.086,4.562-0.156,5.781-0.242c13.297-1,24.922-3.297,34.828-6.875c0.438,5.156-0.062,12.094-4.125,18.414
			c-7.297,11.336-24.484,18.375-49.703,20.344c-2.375,0.188-7.484,0.344-10.547,0.438l-1.234,0.039v0.008
			c-2.625,0.086-5.219,1.109-7.203,3.109c-4.172,4.164-4.172,10.93,0,15.086c2.156,2.156,5.031,3.188,7.875,3.109v0.016l1.219-0.047
			c3.672-0.109,8.688-0.266,11.547-0.484c3.719-0.297,7.297-0.688,10.734-1.172c-0.562,2.719-1.828,5.875-4.422,8.984
			c-6.703,8.031-25.953,19.781-80.703,14.969c22.234-25.484,39.953-55.75,39.953-87.492c0-12.078-2.875-23.492-7.969-33.586
			c2.266-1.703,4.75-3.266,7.516-4.664c15.969-8.117,38.047-10.297,59.422-12.398c17.094-1.688,33.469-3.297,47.047-7.875
			C491.196,169.404,491.243,179.654,485.853,188.49z"/>
	</g>
</g>
<g>
</g>
<g>
</g>
<g>
</g>
<g>
</g>
<g>
</g>
<g>
</g>
<g>
</g>
<g>
</g>
<g>
</g>
<g>
</g>
<g>
</g>
<g>
</g>
<g>
</g>
<g>
</g>
<g>
</g>
</svg>
