<svg id="Layer_1" enable-background="new 0 0 511.993 511.993" height="36" fill="#6c757d" viewBox="0 0 511.993 511.993" width="36" xmlns="http://www.w3.org/2000/svg"><g><g><path d="m28.875 176.725c9.075 1.753 18.227-.128 25.763-5.28l65.724-44.766v42.461c0 15.623 12.723 28.333 28.361 28.333 15.623 0 28.333-12.71 28.333-28.333v-17.903c3.983 2.136 8.533 3.349 13.361 3.349 15.623 0 28.332-12.723 28.332-28.361v-82.82c0-8.709-1.868-15.721-5.702-21.426-5.172-7.723-13.074-12.955-22.25-14.732-9.08-1.757-18.243.11-25.805 5.262l-148.954 101.491c-15.745 10.728-19.986 32.248-9.455 47.974 5.184 7.74 13.1 12.978 22.292 14.751zm144.561-151.821c4.231-2.883 9.381-3.926 14.507-2.932 5.22 1.011 9.709 3.978 12.646 8.363 2.155 3.206 3.158 7.358 3.158 13.068v82.82c0 7.367-5.981 13.361-13.332 13.361-7.367 0-13.361-5.994-13.361-13.361v-20.776c0-4.143-3.358-7.5-7.5-7.5s-7.5 3.357-7.5 7.5v20.776 42.916c0 7.352-5.981 13.333-13.333 13.333-7.367 0-13.361-5.981-13.361-13.333v-56.644c0-22.01-.011-33.484-18.895-48.775zm-148.952 101.493 78.967-53.806c15.83 11.455 16.843 17.266 16.906 35.943l-74.175 50.522c-4.216 2.883-9.354 3.928-14.467 2.941-5.23-1.009-9.729-3.981-12.669-8.37-5.965-8.908-3.526-21.123 5.438-27.23z"/><path d="m220.936 394.664v-29.931c18.919-12.404 34.788-29.207 46.054-48.823 5.545-9.655 9.907-19.914 13.042-30.53.122-.341.227-.69.299-1.051 3.65-12.717 5.547-25.932 5.547-39.247v-6.594c0-5.64-4.588-10.229-10.229-10.229h-265.42c-5.641.001-10.229 4.59-10.229 10.23v6.594c0 13.24 1.876 26.382 5.485 39.032.095.561.246 1.102.458 1.612 3.128 10.493 7.458 20.633 12.944 30.184 11.26 19.607 27.119 36.403 46.025 48.804v29.949c0 6.737 5.481 12.218 12.218 12.218h131.616c6.722 0 12.19-5.48 12.19-12.218zm-146.313-41.548c-23.988-15.245-41.743-37.277-51.382-62.761h103.711c4.142 0 7.5-3.357 7.5-7.5s-3.358-7.5-7.5-7.5h-108.341c-2.367-9.772-3.611-19.914-3.611-30.273v-1.822h255.877v1.822c0 10.359-1.244 20.501-3.611 30.272h-105.584c-4.142 0-7.5 3.357-7.5 7.5s3.358 7.5 7.5 7.5h100.955c-9.64 25.484-27.394 47.515-51.382 62.761h-136.632zm131.313 38.766h-126.023v-23.767h126.023z"/><path d="m394.442 398.517c-4.073.757-6.761 4.671-6.004 8.744.671 3.609 3.822 6.131 7.366 6.131.454 0 .916-.041 1.378-.127 10.354-1.924 17.953-7.542 21.397-15.819 3.346-8.042 2.092-17.61-3.355-25.596-2.334-3.422-7-4.305-10.422-1.97-3.422 2.334-4.304 7.001-1.97 10.423 2.58 3.781 3.289 8.036 1.897 11.381-1.432 3.44-5.085 5.867-10.287 6.833z"/><path d="m509.092 5.938c-3.94-4.595-9.9-4.595-17.446-4.595h-103.906c-5.382 0-10.467 0-14.316 3.609-3.525 3.305-4.195 7.916-5.046 13.776-11.845 83.272-45.602 322.837-46.315 329.842-2.317 22.78-2.939 28.902-17.796 42.631-15.155 13.996-39.567 27.451-61.105 39.323-16.973 9.355-33.005 18.191-42.847 26.356-9.631 8.004-13.803 18.437-11.445 28.623 2.601 11.236 12.523 20.235 25.894 23.484 4.785 1.162 10.355 1.662 16.45 1.662 23.233 0 54.074-7.271 77.931-12.896 6.015-1.419 11.209-2.644 15.595-3.585l97.852-20.975c34.159-7.319 48.256-24.034 54.067-36.769 7.519-16.478 6.104-36.322-3.886-54.456-9.122-16.499-12.242-28.581-10.433-40.397l20.719-135.2c.627-4.094-2.183-7.922-6.277-8.549-4.095-.63-7.922 2.183-8.55 6.277l-20.719 135.201c-2.352 15.359 1.277 30.291 12.128 49.916 7.559 13.722 8.82 29.042 3.372 40.98-6.285 13.773-21.349 23.569-43.563 28.329l-97.854 20.976c-4.535.974-10.052 2.273-15.892 3.651-27.024 6.372-67.862 16.003-87.397 11.258-7.709-1.873-13.526-6.697-14.821-12.291-1.343-5.802 2.749-10.654 6.414-13.699 8.744-7.255 24.172-15.758 40.506-24.761 22.287-12.284 47.546-26.208 64.042-41.441 19.027-17.583 20.128-28.409 22.541-52.132.735-7.229 5.706-44.46 7.007-53.602l26.458 3.989c1.348.203 2.696.304 4.036.304 5.711 0 11.264-1.824 15.963-5.299 5.797-4.286 9.578-10.554 10.646-17.648l26.346-175.22c2.208-14.705-7.951-28.464-22.645-30.671l-28.235-4.24c2.171-15.26 4.385-30.822 6.663-46.837.185-1.277.457-3.146.722-4.447 1.271-.073 2.987-.073 3.792-.073h103.906c1.5 0 3.642 0 5.274.085-.075.806-.208 1.9-.438 3.386l-22.851 149.071c-.627 4.095 2.183 7.923 6.277 8.55 4.095.633 7.922-2.182 8.55-6.276l22.85-149.065c.933-6.061 1.466-11.858-2.218-16.155zm-106.522 80.836c6.515.979 11.019 7.084 10.039 13.608l-26.346 175.217c-.472 3.136-2.152 5.912-4.73 7.819-2.577 1.905-5.721 2.692-8.846 2.224l-26.578-4.008c1.088-7.643 2.165-15.203 3.231-22.693l25.121-176.388z"/></g></g></svg>