<svg xmlns="http://www.w3.org/2000/svg" viewBox="0 0 2876.5 1786.72"><defs><style>.cls-1{isolation:isolate;}.cls-2{fill:#eafcfc;opacity:0.6;}.cls-18,.cls-3,.cls-5{opacity:0.5;}.cls-18,.cls-4{fill:#9bc1f9;}.cls-11,.cls-5{fill:#fff;}.cls-6{fill:#001333;}.cls-7{fill:#264570;}.cls-8{fill:#f7cc7f;}.cls-9{fill:#466eb6;}.cls-10{fill:#f47458;}.cls-12{fill:#355389;}.cls-13{fill:#f7a491;}.cls-14{fill:#fe875e;}.cls-15{fill:#fae0b2;}.cls-16{fill:#3c8f7c;}.cls-17{fill:#b75742;}.cls-18{mix-blend-mode:multiply;}.cls-19{fill:#184655;}.cls-20{fill:#13375b;}.cls-21{fill:#eab054;}.cls-22{fill:#327f6b;}</style></defs><title>Asset 1</title><g class="cls-1"><g id="Layer_2" data-name="Layer 2"><g id="Layer_1-2" data-name="Layer 1"><path class="cls-2" d="M166.26,1783H2749.87c228-180,116.65-849.54-86-1003.88-486.35-370.42-153.82-942.6-1416-734.92C441.32,176.86,650.35,374,117.49,973.76-169.23,1296.5,158,1778.62,166.26,1783Z"/><g class="cls-3"><rect class="cls-4" x="820.07" y="342.43" width="485.8" height="743.68"/><rect class="cls-4" x="837.24" y="353.26" width="451.28" height="721.19"/><polygon class="cls-5" points="1029.58 1074.45 1083.17 1074.45 1261.4 353.26 1207.81 353.26 1029.58 1074.45"/><polygon class="cls-5" points="1101.31 353.26 990.85 353.26 837.24 974.84 837.24 1074.45 923.08 1074.45 1101.31 353.26"/></g><path class="cls-6" d="M820.1,342.16v743.95h486V342.16Zm441,697.53h-396V388.58h396Z"/><rect class="cls-7" x="665.83" y="1201.39" width="1535.85" height="357.63"/><rect class="cls-6" x="644.93" y="1189.86" width="20.56" height="592.66"/><g class="cls-3"><rect class="cls-4" x="1570.46" y="343.98" width="485.8" height="743.68"/><rect class="cls-4" x="1587.63" y="354.81" width="451.28" height="721.19"/><polygon class="cls-5" points="1779.97 1076 1833.56 1076 2011.8 354.81 1958.2 354.81 1779.97 1076"/><polygon class="cls-5" points="1851.71 354.81 1741.25 354.81 1587.63 976.39 1587.63 1076 1673.47 1076 1851.71 354.81"/></g><path class="cls-6" d="M1570.49,343.71v744h486V343.71Zm441,697.53h-396V390.13h396Z"/><polygon class="cls-8" points="868.76 965.4 879.92 1052.36 903.26 1057.99 926.58 1046.7 937.75 965.4 868.76 965.4"/><path class="cls-4" d="M879.32,1046.7h47.25a0,0,0,0,1,0,0v42.67a0,0,0,0,1,0,0h-30a17.25,17.25,0,0,1-17.25-17.25V1046.7A0,0,0,0,1,879.32,1046.7Z"/><path class="cls-4" d="M830.32,949.51H806.48a11.92,11.92,0,0,0-11.92,11.92h47.68A11.92,11.92,0,0,0,830.32,949.51Z"/><polygon class="cls-9" points="756.57 937.86 722.07 937.86 733.23 1052.64 756.57 1058.27 779.9 1052.64 791.06 937.86 756.57 937.86"/><rect class="cls-10" x="779.9" y="959.42" width="77.91" height="126.96" rx="11.42"/><path class="cls-10" d="M989.32,1065.12h-84a4,4,0,0,0-4,4v.87h93A4.91,4.91,0,0,0,989.32,1065.12Z"/><rect class="cls-8" x="891.76" y="1070.03" width="110.84" height="19.34" rx="7.56"/><path class="cls-11" d="M845.42,1020.38a26.56,26.56,0,1,1-26.56-26.57A26.56,26.56,0,0,1,845.42,1020.38Z"/><path class="cls-8" d="M769.27,1030H703.36c-60.62,7.64-28.29,56.45-28.29,56.45H797.55S829.89,1037.66,769.27,1030Z"/><path class="cls-4" d="M709.14,1022.67H763a5.78,5.78,0,0,1,5.78,5.78V1030a0,0,0,0,1,0,0H703.36a0,0,0,0,1,0,0v-1.57A5.78,5.78,0,0,1,709.14,1022.67Z"/><rect class="cls-11" x="695.28" y="1051.39" width="81.98" height="18.91" rx="6"/><path class="cls-4" d="M1524.36,901.41h-23.84a11.92,11.92,0,0,0-11.92,11.92h47.68A11.92,11.92,0,0,0,1524.36,901.41Z"/><rect class="cls-8" x="1473.95" y="913.33" width="77.91" height="173.04" rx="11.42"/><path class="cls-10" d="M1463.31,1030H1397.4c-60.62,7.64-28.29,56.45-28.29,56.45H1491.6S1523.93,1037.66,1463.31,1030Z"/><path class="cls-4" d="M1403.18,1022.67H1457a5.78,5.78,0,0,1,5.78,5.78V1030a0,0,0,0,1,0,0H1397.4a0,0,0,0,1,0,0v-1.57A5.78,5.78,0,0,1,1403.18,1022.67Z"/><rect class="cls-11" x="1389.32" y="1051.39" width="81.98" height="18.91" rx="6"/><path class="cls-4" d="M1610.46,1065.12h-84a4,4,0,0,0-4,4v.87h92.95A4.91,4.91,0,0,0,1610.46,1065.12Z"/><rect class="cls-10" x="1512.9" y="1070.03" width="110.84" height="19.34" rx="7.56"/><rect class="cls-12" x="599.6" y="1134.34" width="1700.08" height="67.06"/><rect class="cls-9" x="569.98" y="1086.03" width="1745.79" height="67.06"/><rect class="cls-6" x="655.37" y="1372.28" width="1546.3" height="16.58"/><rect class="cls-6" x="660.74" y="1554.7" width="1535.47" height="16.58"/><path class="cls-13" d="M1064.14,936.43,1087,994.71s-29.94,37.24-52.51,35.76c-18.93-1.24-11.86-27.2-11.86-27.2s2.36-34.33-4.28-50.58S1064.14,936.43,1064.14,936.43Z"/><path class="cls-14" d="M1061.31,956.2c-8.17,6.32-24.9,16.17-38.61,20.69-.53-8.74-1.74-17.85-4.33-24.2-3.06-7.51,6.45-11.54,17.58-13.72,14.77-2,28.19-2.54,28.19-2.54l4.39,11.2A30.78,30.78,0,0,1,1061.31,956.2Z"/><path class="cls-13" d="M1094.67,856.64c1.51-.32.52,70.64-21.5,87.67s-60,19.07-70.9,2.42c-12-18.41.51-93.36,33.15-109.74S1094.67,856.64,1094.67,856.64Z"/><path class="cls-15" d="M1052.55,800.94a79.26,79.26,0,0,1,39.4,28c10.18,2.34,23.42,9.34,34.4,33.64,13.5,29.89-4.57,59.2-27.77,71.95s-23.41,30-23.41,30l-6.71-17s2.12-16.6,8.72-26.13-8.11-18.05-11.2-27c-2.39-6.87-.22-21.69-3.9-33,0,0-18.39-17.84-33.12-20C1003.86,837.7,1024.15,792,1052.55,800.94Z"/><path class="cls-15" d="M1051.07,852.21s4.17,8.68,1.75,17.42-20,67.88-14.87,74.71,37.22,20.19,37.22,20.19L1089.62,916l-14.94-67.65Z"/><path class="cls-13" d="M1032.51,1708.65l-16.1-46.13h42.15c2.19,29.61,3,49.59,3,49.59l10.71,30.33,10.89,36s-35.85,9.24-54.65-1.14l2.08-35.88Z"/><path class="cls-6" d="M1030.61,1741.31c16.54,7.37,34.35,2.92,41.51.57l2.38,6.41,9.12,30.41s-36.3,9-55.1-1.37Z"/><path class="cls-13" d="M755.92,1700.37s11.72,27.8,2,39.31-50.24,22.84-55.55,29.07-4.9,11.55-4.9,11.55l113.69-3.23-1.27-34.22-10.48-51.57Z"/><path class="cls-6" d="M750.83,1745.42s29.23,11.75,43.33,4.76,13.68-8.91,17.77-6.32,5.58,34.68,5.58,34.68l-127.85,3.86c-8.9-.19-13.4-6.72-6.18-12.31,4.95-3.84,10.68-6.41,13.93-8.28C707.41,1756.09,750.83,1745.42,750.83,1745.42Z"/><path class="cls-16" d="M905.71,1477.34s81.7,168.48,94.85,199.33,16.85,46.29,16.85,46.29h51.22s-19.75-192.55-53.07-245.62S905.71,1477.34,905.71,1477.34Z"/><path class="cls-16" d="M959.58,1299.15c-12.73-3.48-279.15,47.93-300.73,106.7-3.51,9.57,39,160.87,93.61,305.4l58-8.91s-7.34-148-57.12-249c29.39,7.31,188.2-25.44,217.3-51.37C1007.73,1368.92,972.31,1302.63,959.58,1299.15Z"/><path class="cls-4" d="M1117.5,1004.55c1-15.33-23.28-29.16-38.52-31.14-39.73-5.17-111.89-4.47-136,62.14-15.06,41.64-64.9,200.45-107.44,243s-190.11,38.22-228.81,110.32,54.32,189.64,90.37,230c0,0,74.27,24.52,113.93,5.05s196.12-.72,238.66,7.21,72.82-12.26,72.82-12.26l-45.42-214.14Z"/><path class="cls-7" d="M1105.15,1762H896a17.45,17.45,0,0,0-17.45,17.44h0a3,3,0,0,0,3.06,3h238a3,3,0,0,0,3-3h0A17.44,17.44,0,0,0,1105.15,1762Z"/><path class="cls-7" d="M1010.92,1748.29H985.3A13.73,13.73,0,0,0,971.57,1762h0a13.73,13.73,0,0,0,13.73,13.73h25.62a13.73,13.73,0,0,0,13.73-13.73h0A13.73,13.73,0,0,0,1010.92,1748.29Z"/><path class="cls-13" d="M1040,892.68c-3.82,10.16-2.21,20.16,3.58,22.35s13.59-4.29,17.4-14.44,2.22-20.17-3.58-22.35S1043.86,882.52,1040,892.68Z"/><path class="cls-17" d="M1006.26,993.58l201.34,1.51c15.38.11,25.91,10.93,23.52,24.16l-75.76,420.19c-2.38,13.24-16.78,23.87-32.16,23.76l-201.34-1.51c-15.37-.11-25.91-10.93-23.52-24.16l75.76-420.2C976.48,1004.1,990.88,993.47,1006.26,993.58Z"/><path class="cls-18" d="M1049.72,1631.13c42.54,7.93,72.82-12.26,72.82-12.26l-3.67-17.31c-50.64,7.49-108.09-163-108.09-163S882.44,1417,849.27,1472.5s-83.64,40.38-95.18,32.45-10.81,36-40.37,10.82S706.51,1386.7,687,1386s-26.68,49.75-56.24,69.22c-9.95,6.55-21,2.8-31.2-5,11.79,65.21,70.58,138.52,97.53,168.71,0,0,74.27,24.52,113.93,5.05S1007.18,1623.2,1049.72,1631.13Z"/><path class="cls-10" d="M786.35,1434.1h148.5l78.89-419.51c2.26-11.6,16.56-21,31.94-21H1247c15.38,0,26,9.41,23.75,21L1185.27,1468c-2.26,11.61-16.56,21-31.93,21h-367c-20.11,0-36.41-12.3-36.41-27.47S766.24,1434.1,786.35,1434.1Z"/><rect class="cls-7" x="988.23" y="1489.05" width="21.05" height="259.24" transform="translate(1997.51 3237.35) rotate(180)"/><path class="cls-13" d="M1848.7,936.43l22.88,58.28s-29.94,37.24-52.5,35.76c-18.94-1.24-11.87-27.2-11.87-27.2s2.36-34.33-4.28-50.58S1848.7,936.43,1848.7,936.43Z"/><path class="cls-14" d="M1845.87,956.2c-8.16,6.32-24.9,16.17-38.61,20.69-.52-8.74-1.73-17.85-4.33-24.2-3.06-7.51,6.45-11.54,17.59-13.72,14.76-2,28.18-2.54,28.18-2.54l4.4,11.2A30.81,30.81,0,0,1,1845.87,956.2Z"/><path class="cls-13" d="M1879.24,856.64c1.5-.32.51,70.64-21.51,87.67s-60,19.07-70.9,2.42c-12-18.41.52-93.36,33.16-109.74S1879.24,856.64,1879.24,856.64Z"/><path class="cls-10" d="M1837.11,800.94c22.13,7,62.82,37.34,73.8,61.64,13.5,29.89-4.57,59.2-27.77,71.95s-23.41,30-23.41,30l-6.71-17s2.12-16.6,8.72-26.13-8.11-18.05-11.2-27c-2.39-6.87-.22-21.69-3.89-33,0,0-18.4-17.84-33.13-20C1788.42,837.7,1808.71,792,1837.11,800.94Z"/><path class="cls-10" d="M1835.63,852.21s4.17,8.68,1.76,17.42-20,67.88-14.88,74.71,37.22,20.19,37.22,20.19L1874.18,916l-14.94-67.65Z"/><path class="cls-13" d="M1835.49,1708.65l-16.09-46.13h42.14c2.2,29.61,3,49.59,3,49.59l10.72,30.33,10.88,36s-35.85,9.24-54.65-1.14l2.08-35.88Z"/><path class="cls-6" d="M1833.59,1741.31c16.54,7.37,34.35,2.92,41.51.57l2.38,6.41,9.12,30.41s-36.3,9-55.1-1.37Z"/><path class="cls-13" d="M1558.9,1700.37s11.72,27.8,2,39.31-50.23,22.84-55.55,29.07-4.9,11.55-4.9,11.55l113.69-3.23-1.27-34.22-10.47-51.57Z"/><path class="cls-6" d="M1553.82,1745.42s29.22,11.75,43.33,4.76,13.68-8.91,17.76-6.32,5.58,34.68,5.58,34.68l-127.85,3.86c-8.89-.19-13.4-6.72-6.18-12.31,5-3.84,10.68-6.41,13.94-8.28C1510.39,1756.09,1553.82,1745.42,1553.82,1745.42Z"/><path class="cls-8" d="M1708.69,1477.34s81.7,168.48,94.85,199.33,16.85,46.29,16.85,46.29h51.23s-19.75-192.55-53.08-245.62S1708.69,1477.34,1708.69,1477.34Z"/><path class="cls-8" d="M1762.56,1299.15c-12.73-3.48-279.14,47.93-300.73,106.7-3.51,9.57,39,160.87,93.61,305.4l58-8.91s-7.33-148-57.12-249c29.4,7.31,188.21-25.44,217.3-51.37C1810.72,1368.92,1775.29,1302.63,1762.56,1299.15Z"/><path class="cls-4" d="M1920.48,1004.55c1-15.33-23.28-29.16-38.52-31.14-39.73-5.17-111.89-4.47-136,62.14-15,41.64-64.9,200.45-107.44,243s-190.11,38.22-228.81,110.32,54.32,189.64,90.37,230c0,0,74.27,24.52,113.93,5.05s196.12-.72,238.66,7.21,72.83-12.26,72.83-12.26l-45.43-214.14Z"/><path class="cls-7" d="M1908.13,1762H1699a17.44,17.44,0,0,0-17.44,17.44h0a3,3,0,0,0,3,3h238a3,3,0,0,0,3-3h0A17.44,17.44,0,0,0,1908.13,1762Z"/><path class="cls-7" d="M1813.91,1748.29h-25.63a13.73,13.73,0,0,0-13.72,13.73h0a13.73,13.73,0,0,0,13.72,13.73h25.63a13.73,13.73,0,0,0,13.72-13.73h0A13.73,13.73,0,0,0,1813.91,1748.29Z"/><path class="cls-13" d="M1824.6,892.68c-3.82,10.16-2.21,20.16,3.58,22.35s13.59-4.29,17.41-14.44,2.21-20.17-3.59-22.35S1828.42,882.52,1824.6,892.68Z"/><path class="cls-17" d="M1809.25,993.58l201.33,1.51c15.38.11,25.91,10.93,23.52,24.16l-75.76,420.19c-2.38,13.24-16.78,23.87-32.16,23.76l-201.33-1.51c-15.38-.11-25.91-10.93-23.53-24.16l75.76-420.2C1779.47,1004.1,1793.87,993.47,1809.25,993.58Z"/><path class="cls-18" d="M1852.7,1631.13c42.54,7.93,72.83-12.26,72.83-12.26l-3.68-17.31c-50.63,7.49-108.08-163-108.08-163s-128.35-21.63-161.52,33.89-83.64,40.38-95.17,32.45-10.82,36-40.38,10.82S1509.49,1386.7,1490,1386s-26.68,49.75-56.24,69.22c-10,6.55-21,2.8-31.2-5,11.79,65.21,70.58,138.52,97.53,168.71,0,0,74.27,24.52,113.93,5.05S1810.16,1623.2,1852.7,1631.13Z"/><path class="cls-10" d="M1589.33,1434.1h148.5l78.89-419.51c2.27-11.6,16.56-21,31.94-21H2050c15.38,0,26,9.41,23.76,21L1988.26,1468c-2.26,11.61-16.56,21-31.94,21h-367c-20.11,0-36.41-12.3-36.41-27.47S1569.22,1434.1,1589.33,1434.1Z"/><rect class="cls-7" x="1791.21" y="1489.05" width="21.05" height="259.24" transform="translate(3603.48 3237.35) rotate(180)"/><path class="cls-15" d="M1159.54,243.47h-420c0,32.17,22.39,58.25,50,58.25h533.33c27.62,0,50-26.08,50-58.25Z"/><path class="cls-15" d="M1924.56,243.47h-420c0,32.17,22.39,58.25,50,58.25h533.33c27.62,0,50-26.08,50-58.25Z"/><path class="cls-13" d="M2006.23,832.91s.59-1.2-3.64-5.17-.66-9.59-.66-9.59l5.15,4.5,3.52,6.56Z"/><path class="cls-19" d="M2007.62,820.89l-.53.13-13.25-18.77-42.68-73.39,30.21,69.28a8.23,8.23,0,0,0,9.18,4.78l2-.4,12.83,19.19a7.86,7.86,0,1,0,2.24-.82Zm2.81,13.87a6.3,6.3,0,1,1,4.92-7.42A6.31,6.31,0,0,1,2010.43,834.76Z"/><path class="cls-19" d="M1989.17,803.2l-4.9,22.44-.54.09a7.86,7.86,0,1,0,2.38-.11l4.35-22.68,2-.41a8.24,8.24,0,0,0,6.6-8l.87-75.57Zm2.29,29a6.3,6.3,0,1,1-7.42-4.92A6.31,6.31,0,0,1,1991.46,832.17Z"/><path class="cls-13" d="M2257,674.39s-1.55,37.13,1.8,51.2,7.81,15.15-20.92,19.43c-11.29,1.68-22.17,4.19-22.17,4.19s3-20.67,3.4-29.4c.73-14.37-3.32-58.75-3.32-58.75Z"/><path class="cls-10" d="M2235.15,692.86a51.38,51.38,0,0,1-16.52,5.85c-1-17.54-2.81-37.65-2.81-37.65l39.32,12.71A51.46,51.46,0,0,1,2235.15,692.86Z"/><path class="cls-19" d="M2285.81,600.94c8.65,35.55-38.18,61.37-75.25,62.31-24.1.62-35.18-1.85-39.07-27.16-6.32-41,10.65-66.06,34.42-76.42C2236.59,546.31,2278.67,571.6,2285.81,600.94Z"/><path class="cls-13" d="M2240.16,1179.18l-29.09,259.15s14.22,54.81,12.5,70.38S2192,1728.52,2192,1728.52l1.26,11.46,0,33.83h-111s23.57-10.52,56.53-31.31c2.44-1.54,8.05-6.44,9.42-16.22,8.8-63-8.61-272.93-8.61-272.93L2125.84,1180Z"/><path class="cls-13" d="M2329.38,1233.69c6.27,1.58,15.92,224.41,21.11,234.29,32.92,62.61,40.75,253,40.75,253l9.82,27.71,10,32.92s-32.86,8.43-50.09-1l1.91-32.77,1.75-30-83.06-237.15-45.44-241.9Z"/><path class="cls-8" d="M2164.21,802.05c13.39-18.25,68.67-71.12,74.81-71,17.9.31,76.66.34,88.14,6.15l-.55,100.64c-1.87,8.45-42.43,140-40.08,168.84l-.28.27c-34,32.72-87.62,30.15-118.71-5.69h0s.14-39.92-4.65-76.33C2155.39,867.88,2130.93,847.39,2164.21,802.05Z"/><path class="cls-8" d="M2115.47,1347.76,2111.52,1194a295.91,295.91,0,0,1,26-126.08l30-66.68c12.14,3.85,23.58,7.13,36.34,8.55,27.76,3.11,55,0,82.65-3.13a21.48,21.48,0,0,0,.38,2.72c5,22.64,32.9,73.12,44.65,142.11,13.34,78.32,16.83,186.9,15.16,196.09C2269.46,1365.61,2190.29,1366.21,2115.47,1347.76Z"/><path class="cls-20" d="M2362.86,1747.62c15.16,6.73,31.48,2.67,38,.52l2.18,5.85,8.36,27.79s-33.28,8.22-50.51-1.26Z"/><path class="cls-20" d="M2194.39,1782.21H2079c-4.26-.38-5.31-3.86-3.83-6,3.05-4.42,16.52-7.65,31.65-14.68,26.55,2.79,82.25-15.48,86.44-21.62C2195.65,1752.2,2196.76,1781.69,2194.39,1782.21Z"/><path class="cls-13" d="M2171.51,850.07s-19.52,38.78-22.63,42.78c0,0-85.51-18.93-121.57-30.22-.43-.19-.85-.38-1.27-.59-.71-.34-1.66-.47-1.84-1.44-.78-4.36-4.77-19-6.74-25.23a12.22,12.22,0,0,0-2.67-4.61c-2.68-3-7.71-8.11-7.71-8.11v7.61a4.7,4.7,0,0,1-4.49,4.65h0a21.72,21.72,0,0,1-7.4-1.45,25.64,25.64,0,0,0-10.37-.75c-3.34.37-5.45,2.81-5.72,6.41-.17,2.21.25,4.65-.56,6.58-1.4,3.34-3.46,33.93,1.78,36.92,2.62,1.5,16.7,4.09,22.33,4.19a27.9,27.9,0,0,1,11.36,2.66,15.78,15.78,0,0,0,2.28.88h0c25.74,10.43,111.69,46.95,111.69,46.95s42.13,15,48.29,9.67,43-77.66,43-77.66Z"/><path class="cls-21" d="M2264.19,780.18c8.31,34.1-36,110.14-36,110.14s-63.16-29.69-74.26-42.49c0,0,42.91-73.79,45.72-78.28,12.73-20.31,30-20.33,41.29-19C2250,751.61,2264.19,780.18,2264.19,780.18Z"/><path class="cls-19" d="M2340.22,900c73.23-21.91,53.62-86.24,53.22-83.79.21-2,7.11-10.09,10.52-17,14.22-28.84-4.54-63.58-26-75.6,14.25-36.68.1-71.87-26.73-86.53a107.51,107.51,0,0,1-34.1-30.1c-20.32-27-57.27-54.22-101.7-45.34-44,11.21,14.89,36.59,9.07,78.73-3,21.37,5.53,18.3,18.78,35.48-19.07,33.39-8.05,89.44,21.18,114.87C2250.1,850.87,2265.49,922.36,2340.22,900Z"/><path class="cls-13" d="M2231.35,582s16.3,5.47,25,21.87,4.37,68.93-31.78,86.25-52.77-22-50.14-51S2187.51,572.05,2231.35,582Z"/><path class="cls-19" d="M2269.19,643.59c5.35-27.14,3.25-47.71-16.1-57.65s-35.89-19.78-53.21-1.93l-3.91,2.2s32.67,9,34.5,26.3,19.19,37.85,16.52,46.35-5.76,25.43-5.76,25.43l7.15-5.86S2263.84,670.73,2269.19,643.59Z"/><path class="cls-13" d="M2235.51,633.2c-2.7,7.5-.66,15,4.55,16.81s11.64-2.84,14.34-10.34.66-15-4.56-16.81S2238.21,625.71,2235.51,633.2Z"/><path class="cls-11" d="M2219.34,660.17l-29.25,7.11s3.38,10.94,16.33,8.19C2222.21,672.11,2219.34,660.17,2219.34,660.17Z"/><path class="cls-19" d="M2167.49,994.75s71.16,12,119.39,1.81l-.35,10.11s-61.48,19.69-119-3Z"/><path class="cls-19" d="M2174.15,1001.25s-48.63,108.79-53.72,165.88c-7.93,89,0,156,0,156s-18.51-2.64-17.63-8.81-37.24-147.28,64.69-319.61Z"/><path class="cls-19" d="M2261.49,1008s47.17,107.56,48.93,166.19c0,0-13.66-5.73-33.06,3.08,0-3.52-8.37-141-25.12-167.06Z"/><path class="cls-19" d="M2257.08,1008s2.21,114.17-4.84,142.83c0,0-7.06-6.18-30.86-12.79,0,0,28.23-122.53,28.65-130S2257.08,1008,2257.08,1008Z"/><path class="cls-8" d="M353.31,537.26a142.33,142.33,0,0,1-17.52-3.18c-6.52-1.65-14.89-3.43-19.9-3.19-10.54.51-27.89,5.15-35.44,17.65-9.4,15.57-33.06,9.21-14.73,77,20.75,76.69,62.21,59.34,63,57.82s28.38-57.57,28.38-57.57,19,26,18.74,24.94S424.18,546.06,353.31,537.26Z"/><path class="cls-13" d="M644.66,625.78C641.75,621.17,622.9,638.16,618,636s15.3-28.22,12.45-32c-5.24-7-23.87,27.14-26.49,24.09s14.88-39.14,6.95-40-14.23,39.32-18.48,37.3,9.22-36.88,1-42.65c-4.42-3.08-15.49,62.51-22,66s-17.53-23.24-23.81-21.37,27.22,48.26,26.35,52.31S559.2,773.1,547.36,799.43c-9.45-3.18-63.53-15-72.33-18.2-1,19.24-10.47,35-12.6,54,30.33,9.14,112.11,22.7,120.09,18.6,24.32-12.47,21.82-137.57,23.1-161.12s11.6-29.43,16.33-42.3S647.57,630.39,644.66,625.78Z"/><path class="cls-8" d="M509.8,859.14s-115-17.22-145.69-36.72S320.92,750,344.64,728.3,520,781.94,520,781.94Z"/><path class="cls-13" d="M464.5,1701.66s-2.35,42.26-2.36,42.35c-.87,5.37-4.27,18.62-4.27,23.5,0,18.33,80-15.55,62.11-23.68-1.62-.73-10.13-6.29-10.66-12.53-.82-9.61-2.91-29-2.91-29Z"/><path class="cls-20" d="M519.79,1743.66s-18.8,5.61-28.42,7-22.32-10.4-29.13-7.21c-7.49,3.5-6.74,38-6.74,38s100.33,6,128.67-3.28C595.39,1774.55,558.21,1756.72,519.79,1743.66Z"/><path class="cls-13" d="M288.14,1705.71s-2.35,42.27-2.37,42.36c-.86,5.36-4.26,18.62-4.26,23.5,0,18.32,80.05-15.56,62.11-23.68-1.62-.74-12.65-10.45-13.19-16.68-.82-9.61-.38-24.9-.38-24.9Z"/><path class="cls-20" d="M343.42,1747.72s-18.79,5.6-28.42,7-22.31-10.4-29.12-7.21c-7.5,3.51-7.79,35.09-7.79,35.09s107.25,7.92,132.46.48C421.88,1779.74,381.84,1760.77,343.42,1747.72Z"/><path class="cls-12" d="M415,1109l33.85,14.87L520,1470.15l-2.89,259.61-57.07,1.35S433.53,1504,433.53,1486.42s-122.95-308-122.95-308Z"/><path class="cls-9" d="M388.87,1128s-24.93,266.81-24.93,311.79-20.22,296.69-20.22,296.69l-57.2-.34s-4.13-76.72-10.26-189.6c-1-17.68,1.23-53.35,0-71.65-8.9-131.63-26.5-255.54-18.1-304.66,1.36-7.91,3.9-28.58,8.85-33.8C304.47,1097,388.87,1128,388.87,1128Z"/><path class="cls-8" d="M294.65,729s-39.47,5.6-49.86,13.37c-11.7,8.75-24.69,28.33-24.69,28.33s48.47,233.35,48.55,272.62c.07,30.38-10.49,105-10.49,105s146.45,9.42,201.92-12.89c0,0-17.52-88.71-17.52-112S421.61,788.3,416.85,773.5c-4.33-13.42-12.24-37.54-39-43.48S294.65,729,294.65,729Z"/><path class="cls-13" d="M305.43,666.2l-9.77,65.16s35.68,77.59,57,70.86c17.88-5.65,6.88-74.3,6.88-74.3-.27-1.71-10.1-39.13-6.82-55.31C356.4,654.3,305.43,666.2,305.43,666.2Z"/><path class="cls-10" d="M352.7,672.61c2.92-18.45-47.27-6.41-47.27-6.41l-.81,5.4-1.5,10s17,40.37,53.76,34.74C355.37,706.37,351.5,680.17,352.7,672.61Z"/><path class="cls-19" d="M261.41,1032.82l-3.94,15.84,64.94,7.78s8.45-21.32,3.15-20.72l-39,4.42Z"/><path class="cls-13" d="M322.57,565.28c22-8.33,46.19,5.82,50.27,28.73A286.17,286.17,0,0,1,377,630.25c1.59,33.06-14.52,65.74-29.49,66.17s-57-19.79-59.89-66.7C285.82,600.76,299.46,574,322.57,565.28Z"/><path class="cls-13" d="M298.75,633.12c.22,7.29-4.42,13.35-10.37,13.52s-10.94-5.61-11.16-12.9,4.42-13.35,10.37-13.52S298.54,625.82,298.75,633.12Z"/><path class="cls-8" d="M287.59,620.22s18.37.77,22.56-11.79,22.43-41.56,54-37.52-30.94-19.16-33.3-18.68-30.7,6.06-30.7,6.06-18.16,22.4-18.54,24.53-2.29,24.92-2.29,24.92Z"/><path class="cls-11" d="M360.62,658.56l-26.5,2.58s1.59,10,13.28,9.21C361.65,669.37,360.62,658.56,360.62,658.56Z"/><path class="cls-19" d="M449.1,1026.66C445.77,923.72,430.48,709.13,376,725.55c0,0,25.71,96.93,28.8,127.85,0,0-83.36,13.27-109.17,9.28l-25-129.25s-2.32-7.35-18.61,5.29c0,0,32.1,220.62,34.51,365l.3,0,19,222.84c2.52,27.29,27.58,46.43,54,41.23l146-28.73-42.51-196.55A647.19,647.19,0,0,1,449.1,1026.66Z"/><path class="cls-4" d="M508.57,874.34l.84-2.66-19-6h0l-12.55-4L440,981.79a6.57,6.57,0,0,0,4.3,8.25h0a6.58,6.58,0,0,0,8.25-4.3l13.86-44,19,6,.83-2.65-19-6,2-6.52,19,6,.84-2.66-19-6,2.05-6.51,19,6,.83-2.66-19-6,2.05-6.51,19,6,.84-2.66-19-6L478,905l19,6,.84-2.65-19-6,2.05-6.52,19,6,.84-2.65-19-6,2.05-6.52,19,6,.84-2.65-19-6,2-6.52,19,6,.83-2.66-19-6,2-6.51Z"/><path class="cls-13" d="M479.15,983.29c-1.18-.87-1.06-1.53-1.06-1.53,1.48-2,.92-9.25-1.53-10.77s-14.87-2.19-16-2.87-3.16-2.16-5-2.28-14.82-5.2-17.36-5.37-10.78,4.08-15.81,5.24-12.61,6.66-14.8,8c-1.64,1-35.72-.72-44.51-1.06-9.54-.36-16.92-1.22-16.92-1.22s-56.07-8.26-114.5-12.56l10.42-48.11L187,904.41c-3.73,27.29-13.53,69.64-14,82.52-.87,25.35,85.56,22.76,162.06,19.22h0c8.41-.39,16.34-.8,23.58-1.2,9.86-.17,26.38.88,34,1.32h0c4.78.68,11.34,1.67,12.15,2.1,1.31.69,10.06,2.33,10.8,2.38s3.79,1.75,5.09,2.44,18.84,1.26,21.68,1.45,9.1-1.49,9.1-1.49l11.72-.11c8.61-.09,5.73-8.81,5.73-8.81,4.06-.07,6.08-1.62,6.69-4s-.23-5-.09-5.41,1.4-.69,1.4-.69c2.58.06,4.36-3,4.6-4.87A8.54,8.54,0,0,0,479.15,983.29Z"/><path class="cls-8" d="M252.06,738.72s-23.11,5.42-47,32.75c-21.72,24.85-35.4,164-35.4,164l75,12.35,6-67.32,5.64-20Z"/><path class="cls-6" d="M2163.47,236.55h-25.58V97.35q-3.72-2.4-7.52-4.74V236.55h-622V10l-7.52.7V236.55H1479v22.63h684.51Z"/><path class="cls-6" d="M1398.45,236.55h-25.58V25.41l-7.52,1V236.55h-622V193.23q-3.79,2.19-7.52,4.43v38.89H713.94v22.63h684.51Z"/><rect class="cls-10" x="65.57" y="1777.75" width="2767.18" height="8.97"/><path class="cls-16" d="M2591.78,1487.68c-1.52-13.38-3.32-27.08-9.53-39-7.55-14.53-20.83-25-32.42-36.55a202.59,202.59,0,0,1-48.34-77.06c-7.74-22.35-11.6-46.17-22.26-67.29-6.51-12.89-15.39-24.41-22.79-36.82-17.48-29.31-27-64-50.69-88.5a106.36,106.36,0,0,0,24,84.15c5.84,6.81,12.61,13,17.06,20.74,8.07,14.15,7.34,31.41,8.28,47.67a209.41,209.41,0,0,0,25,87.62c15.55,28.55,38,54,46.31,85.43,6.23,23.57,4.38,50,17.66,70.43,1.44,2.21,3.09,4.43,3.44,7a15.37,15.37,0,0,1-.26,4.43c-.29,1.9-.59,3.79-.89,5.69-3,19.29-6.14,43.83,10.43,58.27,11.49,10,26.27,10.22,34.52-3.07s7.57-33,6.95-48C2597.29,1537.76,2594.6,1512.61,2591.78,1487.68Z"/><path class="cls-22" d="M2621.63,1472.17c-6.45-22.33-16.45-43.6-21.47-66.29-4.87-22-4.9-44.77-4.92-67.31q0-37.07,0-74.12c0-15.38,0-30.84-2.57-46-5.47-32.64-22.43-62.81-25.31-95.78-1.24-14.26.21-28.67-1.36-42.89a67.59,67.59,0,0,0-6.74-23.63,10.53,10.53,0,0,0-18.89.53c-8.24,17.85-13.46,37.15-10.14,56.27,2,11.47,7,22.17,10.68,33.21,16.52,49.15,7.75,103.55,20.53,153.8,3.86,15.17,9.7,30,10.38,45.69,1.62,37.43-26.34,71.62-23.77,109,2.1,30.65,24.13,56,33.38,85.3,5.18,16.39,6.29,33.89,11.83,50.17,4.31,12.64,14.33,28,29.9,24.16,14.78-3.65,10.31-15.71,9.65-27.23C2630.53,1548.06,2632.63,1510.24,2621.63,1472.17Z"/><path class="cls-16" d="M2655.46,1492.63c-.66-11.61-2.61-23.27-1-34.78,1.37-9.71,5.24-18.87,8-28.29,5.18-17.64,6.46-36.16,7.71-54.5l6.84-100c3.54-51.84,7.1-103.83,16.79-154.87,2.69-14.17,5.72-29.53-.65-42.47-1.35-2.73-4-5.62-6.89-4.71-2.06.65-3.07,2.92-3.82,5-21.19,57.58-29.2,119.57-52.84,176.18-5.67,13.56-12.26,26.9-15.19,41.31-3.52,17.29-1.59,35.16-1.13,52.81.65,25.31-1.82,50.81-8.81,75.14-3.65,12.73-8.55,25.17-10.55,38.26-2.5,16.33-.4,33,1.16,49.4a757.48,757.48,0,0,1,3,95.15c-.57,18.66,15.18,18.17,25.61,6.71,7.3-8,7.23-16.82,9.73-26.8C2641.68,1553.31,2657.45,1528.15,2655.46,1492.63Z"/><path class="cls-22" d="M2557.05,1543.22c-13.93-22.38-41.68-35.1-50.58-59.92-2.26-6.32-3.15-13.11-5.92-19.22-6.14-13.57-20.12-21.25-33.86-27.49a2.9,2.9,0,0,0-4.1,2.61h0a9.91,9.91,0,0,0,4.3,8.39,55.71,55.71,0,0,1,22.21,30.29c4.24,14.54,2.4,30.49,7.67,44.69,4.43,11.92,13.55,21.67,17.83,33.65,3.91,11,3.5,22.91,5.34,34.39s6.94,23.67,17.49,28.53C2575.58,1636.72,2566,1557.68,2557.05,1543.22Z"/><path class="cls-16" d="M2715.73,1535.84c-.6,10.82,1.06,22.16-3.18,32.13-2.7,6.38-7.58,11.54-11.58,17.2-14,19.86-19.13,48-40.71,59.19a7.29,7.29,0,0,1-4.59,1.1c-2.21-.41-3.66-2.54-4.55-4.61-5.29-12.33.65-26.21,4.16-39.16.62-2.27,1.13-4.79,0-6.87-1.19-2.3-3.89-3.29-5.74-5.09-3.69-3.58-3.34-9.52-2.61-14.61a330.3,330.3,0,0,1,7.7-37.79c1.87-7.06,4-14.17,8.09-20.22,4.47-6.66,11-11.64,17-16.87a202,202,0,0,0,59-87.06c2.49-7.26,4.72-14.93,9.87-20.62s14.33-8.62,20.61-4.2c4.46,3.14-13.82,32.55-16,36.08-6.09,10.08-6.17,18.85-9.61,30C2735.26,1481.91,2717.34,1506.45,2715.73,1535.84Z"/><path class="cls-22" d="M2694.46,1548.35c4-10.32,8-20.78,9.33-31.77,1.46-12.22-.48-24.71,1.61-36.84,2.68-15.59,11.77-29.3,16.27-44.46,3.25-11,4-22.46,6-33.72,5.58-32.18,20.72-63.63,16.37-96-.94-7-4.12-15.25-11.11-16.45-6.33-1.09-12.09,4.7-13.73,10.91s-.42,12.78,0,19.2A79.21,79.21,0,0,1,2705,1370c-9.94,14.07-24.36,24.66-33.31,39.38-11,18-12.46,40.1-18.06,60.48-11.14,40.54-39.06,75.9-44.15,117.63-2,16.6,1.87,36.79,17.19,43.42C2671,1650.12,2684.42,1574.32,2694.46,1548.35Z"/><path class="cls-7" d="M2617,1599.79H2515.25a10.79,10.79,0,0,0-10.48,13.29l37.08,156.37a10.79,10.79,0,0,0,10.48,8.3h122.2a10.78,10.78,0,0,0,10.47-8.3l37.08-156.37a10.79,10.79,0,0,0-10.47-13.29Z"/></g></g></g></svg>