<svg id="Capa_1" enable-background="new 0 0 512 512" height="36" viewBox="0 0 512 512" width="36" fill="#6c757d" xmlns="http://www.w3.org/2000/svg"><g><path d="m267.45 292.553h-252.45v-15h-15v30h267.45z"/><path d="m180.448 232.553h87.002v15h-87.002z"/><path d="m461.036 232.553-15-30h-88.586v-15h-75.001v15h-14.016l-83.401-22.246-.949-.254h-39.832c2.015-4.597 3.14-9.668 3.14-14.999 0-20.678-16.822-37.5-37.5-37.5h-18.1c-20.678 0-37.5 16.822-37.5 37.499 0 20.269 16.167 36.822 36.281 37.469l-.034.031h-24.228l-14.998 30h-51.312v30h15v-15h150.448v-15h-97.367l7.5-15h20.771l16.594-15.135c7.246-.587 13.919-3.233 19.42-7.365h49.75l83.401 22.246.949.254h15.982v90h75.001v-90h79.315l7.5 15h-71.816v15h124.552v45h-124.551v15h139.551v-75zm-351.144-45h-18.1c-12.406 0-22.5-10.094-22.5-22.5s10.094-22.499 22.5-22.499h18.1c12.406 0 22.5 10.094 22.5 22.5s-10.094 22.499-22.5 22.499zm232.558 105h-45.001v-90h45.001z"/><path d="m339.501 352.553h15v15h-15z"/><path d="m482 472.552h-45v-149.999h-15v30h-52.499v15h52.499v45h-248.499v15h248.499v44.999h-52.499v15h52.499 7.5 67.5v-59.999h-15z"/><path d="m90 427.553h68.501v-15h-68.501v-45h234.501v-15h-234.501v-30h-15v149.999h-45v-149.999h-15v164.999h67.5 7.5 264.501v-15h-264.501z"/><path d="m482 322.553h15v90h-15z"/><path d="m214.751 87.994c5.969 3.446 8.021 11.106 4.575 17.075l12.99 7.5c7.581-13.131 3.065-29.982-10.065-37.565-2.892-1.67-4.96-4.365-5.824-7.59-.864-3.226-.421-6.594 1.248-9.485l-12.99-7.5c-3.673 6.361-4.648 13.772-2.747 20.867 1.901 7.096 6.452 13.026 12.813 16.698z"/><path d="m207.071 120.805h15.001v15h-15.001z" transform="matrix(.5 -.866 .866 .5 -3.831 249.976)"/><path d="m304.749 87.994c2.892 1.67 4.96 4.365 5.824 7.591.864 3.225.421 6.593-1.249 9.484l12.99 7.5c3.673-6.361 4.648-13.771 2.748-20.867-1.901-7.095-6.452-13.025-12.813-16.698-5.969-3.446-8.021-11.106-4.575-17.075l-12.99-7.5c-3.673 6.361-4.648 13.772-2.747 20.867 1.901 7.096 6.451 13.025 12.812 16.698z"/><path d="m297.07 120.805h15.001v15h-15.001z" transform="matrix(.5 -.866 .866 .5 41.169 327.917)"/><path d="m304.929 27.193h15v15h-15z" transform="matrix(.5 -.866 .866 .5 126.168 287.917)"/><path d="m394.748 87.994c2.892 1.67 4.96 4.365 5.824 7.591.864 3.225.421 6.593-1.249 9.484l12.99 7.5c3.673-6.361 4.648-13.771 2.748-20.867-1.901-7.095-6.452-13.025-12.813-16.698-2.892-1.669-4.96-4.365-5.824-7.59-.864-3.226-.421-6.594 1.249-9.485l-12.99-7.5c-3.673 6.36-4.648 13.771-2.747 20.867s6.451 13.025 12.812 16.698z"/><path d="m387.069 120.806h15v14.999h-15z" transform="matrix(.5 -.866 .866 .5 86.199 405.893)"/><path d="m394.928 27.193h15v15h-15z" transform="matrix(.5 -.866 .866 .5 171.167 365.858)"/><path d="m214.93 27.193h15v15h-15z" transform="matrix(.5 -.866 .866 .5 81.169 209.976)"/><path d="m312.449 217.553h15v15h-15z"/><path d="m44.999 442.553h15v15h-15z"/><path d="m467 262.553h15v15h-15z"/><path d="m452 352.553h15v45h-15z"/><path d="m452 322.553h15v15h-15z"/></g></svg>