<?xml version="1.0" standalone="no"?>
<!DOCTYPE svg PUBLIC "-//W3C//DTD SVG 20010904//EN"
 "http://www.w3.org/TR/2001/REC-SVG-20010904/DTD/svg10.dtd">
<svg version="1.0" xmlns="http://www.w3.org/2000/svg"
 width="171.000000pt" height="171.000000pt" viewBox="0 0 171.000000 171.000000"
 preserveAspectRatio="xMidYMid meet">
<metadata>
Created by potrace 1.11, written by Peter Selinger 2001-2013
</metadata>
<g transform="translate(0.000000,171.000000) scale(0.100000,-0.100000)"
fill="#000000" stroke="none">
<path d="M497 1614 c-1 -1 -33 -4 -72 -7 -38 -3 -79 -8 -90 -10 -93 -24 -180
-101 -215 -193 -28 -74 -37 -201 -19 -264 7 -25 13 -47 14 -50 10 -46 78 -132
139 -172 l39 -27 -46 -21 c-39 -18 -169 -127 -159 -133 2 -1 -6 -22 -17 -47
-11 -25 -23 -61 -26 -79 -3 -19 -8 -38 -11 -42 -11 -18 -5 -142 10 -195 21
-74 47 -134 58 -134 4 0 7 -4 5 -8 -3 -12 77 -92 92 -92 6 0 11 -5 11 -11 0
-5 4 -7 10 -4 5 3 10 2 10 -4 0 -17 82 -25 285 -26 110 0 205 0 210 2 7 2 10
134 10 378 0 327 2 375 15 376 22 1 181 1 213 0 l27 -1 0 -375 c0 -293 3 -375
13 -376 39 -2 406 1 427 4 98 14 222 140 244 248 13 61 16 72 26 83 5 7 7 16
3 20 -4 3 -8 32 -10 64 -3 67 -3 70 -27 145 -10 31 -23 57 -27 57 -5 0 -9 6
-9 13 0 23 -84 103 -143 136 l-58 33 30 17 c44 24 101 74 101 88 0 7 4 13 8
13 9 0 33 44 38 68 1 8 6 21 10 30 15 36 20 163 9 212 -3 14 -8 36 -11 49 -3
13 -10 34 -17 45 -6 12 -11 24 -12 27 -1 15 -62 81 -95 103 -76 50 -122 59
-313 60 -98 1 -181 -2 -183 -6 -3 -4 -5 -161 -4 -348 l0 -341 -127 3 -128 3 0
337 c0 185 -3 339 -5 342 -5 4 -229 14 -233 10z m103 -105 c4 -6 5 -553 1
-583 -1 -8 -162 -2 -201 7 -35 8 -109 50 -137 78 -17 16 -39 46 -48 66 -25 52
-45 132 -34 138 4 3 4 17 -1 30 -5 14 -6 25 -2 25 5 0 7 15 6 32 -1 18 2 39 8
45 6 7 8 13 4 13 -4 0 2 17 13 38 29 56 82 94 152 107 12 2 23 6 25 8 7 6 209
3 214 -4z m801 -9 c29 -10 55 -23 57 -29 2 -6 9 -11 16 -11 33 0 76 -142 70
-234 -5 -77 -6 -82 -31 -136 -36 -80 -117 -138 -213 -156 -52 -9 -180 -12
-181 -4 0 3 -2 137 -2 298 l-2 293 116 -2 c83 -1 132 -6 170 -19z m-753 -285
c0 -162 -4 -295 -9 -295 -5 0 -9 21 -10 48 -5 410 -3 542 7 542 8 0 11 -83 12
-295z m446 -129 c1 -100 -3 -155 -9 -153 -6 2 -10 66 -10 165 0 92 4 157 9
152 5 -5 9 -79 10 -164z m-494 -255 c3 0 5 -146 5 -324 l0 -322 -145 1 c-160
1 -164 2 -206 28 -83 53 -135 157 -136 271 0 38 14 121 23 132 7 7 9 13 5 13
-10 0 30 74 60 109 31 37 106 84 142 87 13 2 26 4 28 6 3 4 212 3 224 -1z m47
-326 c0 -179 -4 -325 -9 -325 -10 0 -9 -37 -9 305 0 371 -1 357 10 351 5 -3 9
-151 8 -331z m448 55 c0 -183 -4 -280 -10 -280 -7 0 -10 95 -9 278 2 304 1
282 12 282 4 0 7 -126 7 -280z m327 254 c63 -32 110 -79 141 -140 74 -146 44
-352 -63 -434 -18 -14 -33 -23 -35 -20 -1 3 -10 -3 -20 -13 -9 -10 -24 -16
-31 -13 -8 3 -14 2 -14 -2 0 -9 -280 -11 -281 -3 -3 21 -4 629 0 639 3 10 34
13 130 11 111 -1 132 -4 173 -25z"/>
</g>
</svg>
